<svg width="9" height="6" viewBox="0 0 9 6" fill="none" xmlns="http://www.w3.org/2000/svg">
<path d="M8.91072 4.45537C8.91072 4.5268 8.875 4.60716 8.82143 4.66073L8.375 5.10716C8.32143 5.16073 8.24107 5.19644 8.16964 5.19644C8.09822 5.19644 8.01786 5.16073 7.96429 5.10716L4.45536 1.59823L0.946429 5.10716C0.892857 5.16073 0.8125 5.19644 0.741071 5.19644C0.660714 5.19644 0.589286 5.16073 0.535714 5.10716L0.0892857 4.66073C0.0357143 4.60716 0 4.5268 0 4.45537C0 4.38394 0.0357143 4.30358 0.0892857 4.25001L4.25 0.0892987C4.30357 0.0357275 4.38393 1.28746e-05 4.45536 1.28746e-05C4.52679 1.28746e-05 4.60714 0.0357275 4.66071 0.0892987L8.82143 4.25001C8.875 4.30358 8.91072 4.38394 8.91072 4.45537Z" fill="white"/>
</svg>
